<?xml version="1.0" encoding="UTF-8" standalone="no"?>
<!-- Created with Inkscape (http://www.inkscape.org/) -->

<svg
   xmlns:dc="http://purl.org/dc/elements/1.1/"
   xmlns:cc="http://creativecommons.org/ns#"
   xmlns:rdf="http://www.w3.org/1999/02/22-rdf-syntax-ns#"
   xmlns:svg="http://www.w3.org/2000/svg"
   xmlns="http://www.w3.org/2000/svg"
   xmlns:sodipodi="http://sodipodi.sourceforge.net/DTD/sodipodi-0.dtd"
   xmlns:inkscape="http://www.inkscape.org/namespaces/inkscape"
   width="137.56467mm"
   height="108.53014mm"
   viewBox="0 0 137.56467 108.53014"
   version="1.1"
   id="svg8"
   inkscape:version="0.92.5 (2060ec1f9f, 2020-04-08)"
   sodipodi:docname="drawing.svg">
  <defs
     id="defs2" />
  <sodipodi:namedview
     id="base"
     pagecolor="#ffffff"
     bordercolor="#666666"
     borderopacity="1.0"
     inkscape:pageopacity="0.0"
     inkscape:pageshadow="2"
     inkscape:zoom="11.313709"
     inkscape:cx="356.60154"
     inkscape:cy="63.528186"
     inkscape:document-units="mm"
     inkscape:current-layer="layer1"
     showgrid="false"
     inkscape:window-width="2504"
     inkscape:window-height="1376"
     inkscape:window-x="56"
     inkscape:window-y="27"
     inkscape:window-maximized="1"
     showguides="true"
     inkscape:guide-bbox="true"
     inkscape:pagecheckerboard="true"
     fit-margin-top="0"
     fit-margin-left="0"
     fit-margin-right="0"
     fit-margin-bottom="0">
    <sodipodi:guide
       position="95.141922,108.34031"
       orientation="0,1"
       id="guide873"
       inkscape:locked="false" />
    <sodipodi:guide
       position="101.42275,45.665599"
       orientation="0,1"
       id="guide875"
       inkscape:locked="false" />
    <sodipodi:guide
       position="47.768393,12.791448"
       orientation="0,1"
       id="guide877"
       inkscape:locked="false" />
    <sodipodi:guide
       position="44.310592,28.927859"
       orientation="0,1"
       id="guide879"
       inkscape:locked="false" />
    <sodipodi:guide
       position="82.897632,17.134578"
       orientation="1,0"
       id="guide881"
       inkscape:locked="false" />
    <sodipodi:guide
       position="56.895649,93.426659"
       orientation="1,0"
       id="guide901"
       inkscape:locked="false" />
  </sodipodi:namedview>
  <metadata
     id="metadata5">
    <rdf:RDF>
      <cc:Work
         rdf:about="">
        <dc:format>image/svg+xml</dc:format>
        <dc:type
           rdf:resource="http://purl.org/dc/dcmitype/StillImage" />
        <dc:title></dc:title>
      </cc:Work>
    </rdf:RDF>
  </metadata>
  <g
     inkscape:label="Layer 1"
     inkscape:groupmode="layer"
     id="layer1"
     style="display:inline"
     transform="translate(-38.893749,-23.527063)">
    <path
       style="fill:none;stroke:#000000;stroke-width:0.26458332px;stroke-linecap:butt;stroke-linejoin:miter;stroke-opacity:1"
       d="M 58.397322,64.166665 94.58854,64.072171 84.005207,86.372768 H 47.247024 Z"
       id="path826"
       inkscape:connector-curvature="0"
       inkscape:export-xdpi="203"
       inkscape:export-ydpi="203" />
    <path
       style="fill:none;stroke:#000000;stroke-width:0.26458332px;stroke-linecap:butt;stroke-linejoin:miter;stroke-opacity:1"
       d="M 75.784225,64.072171 65.011905,86.372768"
       id="path828"
       inkscape:connector-curvature="0"
       inkscape:export-xdpi="203"
       inkscape:export-ydpi="203" />
    <path
       style="fill:none;stroke:#000000;stroke-width:0.26458332px;stroke-linecap:butt;stroke-linejoin:miter;stroke-opacity:1"
       d="m 94.454114,23.659735 -9.594362,19.484679 19.752478,0.02834 10.29985,-19.418527 z"
       id="path830"
       inkscape:connector-curvature="0"
       sodipodi:nodetypes="ccccc"
       inkscape:export-xdpi="203"
       inkscape:export-ydpi="203" />
    <path
       style="fill:none;stroke:#000000;stroke-width:0.26458332px;stroke-linecap:butt;stroke-linejoin:miter;stroke-opacity:1"
       d="m 84.796972,43.160064 9.827379,20.835937 10.016339,-20.883184 -19.843718,0.04725"
       id="path832"
       inkscape:connector-curvature="0"
       sodipodi:nodetypes="cccc"
       inkscape:export-xdpi="203"
       inkscape:export-ydpi="203" />
    <path
       style="fill:none;stroke:#000000;stroke-width:0.26458332px;stroke-linecap:butt;stroke-linejoin:miter;stroke-opacity:1"
       d="m 128.27567,68.844119 h 17.24516 l 9.02418,17.481399 h -18.04836 l 9.00616,-17.347951"
       id="path838"
       inkscape:connector-curvature="0"
       sodipodi:nodetypes="ccccc"
       inkscape:export-xdpi="203"
       inkscape:export-ydpi="203" />
    <path
       style="fill:none;stroke:#000000;stroke-width:0.26458332px;stroke-linecap:butt;stroke-linejoin:miter;stroke-opacity:1"
       d="m 120.19643,86.372765 16.30022,-0.04725"
       id="path840"
       inkscape:connector-curvature="0"
       inkscape:export-xdpi="203"
       inkscape:export-ydpi="203" />
    <path
       style="fill:#000000;fill-opacity:1;stroke:#000000;stroke-width:0.26458332px;stroke-linecap:butt;stroke-linejoin:miter;stroke-opacity:1"
       d="m 52.217782,103.02914 3.368342,-0.002 0.02363,17.57589 -2.763951,2.95294 H 41.860869 l -2.834828,-2.85839 v -3.63802 h 3.260045 v 3.04743 h 10.08724 z"
       id="path861"
       inkscape:connector-curvature="0"
       inkscape:export-xdpi="203"
       inkscape:export-ydpi="203" />
    <path
       style="fill:none;fill-opacity:1;stroke:#000000;stroke-width:0.26458332px;stroke-linecap:butt;stroke-linejoin:miter;stroke-opacity:1"
       d="m 61.438583,105.9691 v 1.33635 h 3.257346 v -0.83522 h 9.905677 v 3.24065 H 64.044459 l -2.547411,2.54741 v 4.36818 l 2.601365,2.63929 h 8.999634 l 1.443007,-1.53053 0.03514,1.53053 3.101919,-0.0215 v -13.22984 l -2.747864,-2.74786 H 64.197706 l -2.793801,2.7938"
       id="path865"
       inkscape:connector-curvature="0"
       sodipodi:nodetypes="cccccccccccccccccc"
       inkscape:export-xdpi="203"
       inkscape:export-ydpi="203" />
    <path
       style="fill:none;fill-opacity:1;stroke:#000000;stroke-width:0.26458332px;stroke-linecap:butt;stroke-linejoin:miter;stroke-opacity:1"
       d="m 64.695929,112.78448 v 3.30746 h 9.872268 v -3.34087 z"
       id="path867"
       inkscape:connector-curvature="0"
       inkscape:export-xdpi="203"
       inkscape:export-ydpi="203" />
    <path
       style="fill:none;stroke:#000000;stroke-width:0.26458332px;stroke-linecap:butt;stroke-linejoin:miter;stroke-opacity:1"
       d="m 83.204343,103.12936 15.585156,16.05288 4.727331,-0.0334 -15.384705,-16.03617 -5.020802,-0.0216"
       id="path869"
       inkscape:connector-curvature="0"
       sodipodi:nodetypes="ccccc"
       inkscape:export-xdpi="203"
       inkscape:export-ydpi="203" />
    <path
       style="fill:none;stroke:#000000;stroke-width:0.26458332px;stroke-linecap:butt;stroke-linejoin:miter;stroke-opacity:1"
       d="m 98.739385,103.06255 -15.468224,16.08628 h 4.844261 l 15.468228,-16.01947 z"
       id="path871"
       inkscape:connector-curvature="0"
       inkscape:export-xdpi="203"
       inkscape:export-ydpi="203" />
    <path
       style="fill:#000000;fill-opacity:1;stroke:#000000;stroke-width:0.26458332px;stroke-linecap:butt;stroke-linejoin:miter;stroke-opacity:1"
       d="m 123.21028,103.12935 h -12.5105 l -2.14974,2.30759 v 11.43378 l 2.19698,2.39504 h 11.06107 l 1.28623,-0.63476 v -2.35532 l -1.30294,0.75226 h -10.18965 l -0.90231,-0.90232 v -9.62198 l 1.0024,-1.0024 h 11.3758 v -2.37189"
       id="path883"
       inkscape:connector-curvature="0"
       sodipodi:nodetypes="ccccccccccccccc"
       inkscape:export-xdpi="203"
       inkscape:export-ydpi="203" />
    <path
       style="fill:none;fill-opacity:1;stroke:#000000;stroke-width:0.26458332px;stroke-linecap:butt;stroke-linejoin:miter;stroke-opacity:1"
       d="m 129.39186,103.12935 h 10.54044 l 2.2885,2.2885 v 11.42578 l -2.42212,2.42213 h -10.45693 l -1.97112,-1.97111 v -11.89349 z"
       id="path885"
       inkscape:connector-curvature="0"
       inkscape:export-xdpi="203"
       inkscape:export-ydpi="203" />
    <path
       style="fill:none;fill-opacity:1;stroke:#000000;stroke-width:0.26458332px;stroke-linecap:butt;stroke-linejoin:miter;stroke-opacity:1"
       d="m 130.22708,105.46797 -0.80181,0.7684 v 9.82216 l 0.91874,0.91874 h 8.55262 l 0.9605,-0.9605 v -9.7804 l -0.88951,-0.8895 z"
       id="path887"
       inkscape:connector-curvature="0"
       inkscape:export-xdpi="203"
       inkscape:export-ydpi="203" />
    <path
       style="fill:#000000;fill-opacity:1;stroke:#000000;stroke-width:0.26458332px;stroke-linecap:butt;stroke-linejoin:miter;stroke-opacity:1"
       d="m 146.38018,103.12935 v 16.13641 h 2.12145 v -12.59507 l 1.24447,-1.24448 h 8.57769 l 0.81433,0.81434 v 13.02521 h 2.07552 v -13.81449 l -2.32192,-2.32192 h -8.97022 l -1.36141,1.36141 v -1.36141 z"
       id="path889"
       inkscape:connector-curvature="0"
       inkscape:export-xdpi="203"
       inkscape:export-ydpi="203" />
    <path
       style="fill:#000000;fill-opacity:1;stroke:#000000;stroke-width:0.26458332px;stroke-linecap:butt;stroke-linejoin:miter;stroke-opacity:1"
       d="m 166.64255,98.886461 v 4.242889 h -2.17157 v 2.30522 h 2.15486 v 11.25872 l 2.33861,2.57247 h 6.19732 l 1.16436,-0.67225 v -2.35123 l -1.24836,0.72074 h -5.2614 l -1.16218,-1.16218 v -10.38298 h 6.62451 v -2.28851 h -6.61493 v -4.293001 z"
       id="path893"
       inkscape:connector-curvature="0"
       inkscape:export-xdpi="203"
       inkscape:export-ydpi="203" />
    <text
       xml:space="preserve"
       style="font-style:normal;font-weight:normal;font-size:10.58333302px;line-height:1.25;font-family:sans-serif;letter-spacing:0px;word-spacing:0px;fill:#000000;fill-opacity:1;stroke:none;stroke-width:0.26458332"
       x="53.483631"
       y="131.06847"
       id="text897"
       inkscape:export-xdpi="203"
       inkscape:export-ydpi="203"><tspan
         sodipodi:role="line"
         id="tspan895"
         x="53.483631"
         y="131.06847"
         style="font-size:4.93888903px;line-height:1.25;letter-spacing:1.21972919px;word-spacing:0.74612486px;stroke-width:0.26458332">BIFURCATION ANALYSIS IN JAX</tspan></text>
    <path
       style="fill:none;stroke:#000000;stroke-width:0.26458332px;stroke-linecap:butt;stroke-linejoin:miter;stroke-opacity:1"
       d="m 93.393994,108.60839 0.03341,5.11153"
       id="path899"
       inkscape:connector-curvature="0"
       inkscape:export-xdpi="203"
       inkscape:export-ydpi="203" />
    <path
       style="fill:none;stroke:#000000;stroke-width:0.26458332px;stroke-linecap:butt;stroke-linejoin:miter;stroke-opacity:1"
       d="m 95.769715,106.18626 v 9.95579"
       id="path903"
       inkscape:connector-curvature="0"
       inkscape:export-xdpi="203"
       inkscape:export-ydpi="203" />
    <path
       style="fill:#01a1a9;fill-opacity:1;stroke:#000000;stroke-width:0.26458332px;stroke-linecap:butt;stroke-linejoin:miter;stroke-opacity:1"
       d="m 124.9847,23.719824 9.62422,18.720861 h 15.21354 l 10.80849,-18.720861 z"
       id="path940"
       inkscape:connector-curvature="0"
       inkscape:export-xdpi="203"
       inkscape:export-ydpi="203" />
    <path
       style="fill:none;stroke:#000000;stroke-width:0.26458332px;stroke-linecap:butt;stroke-linejoin:miter;stroke-opacity:1"
       d="m 134.60677,42.437761 -9.74847,19.57887 3.41737,6.827488 -8.07924,17.528646 -13.6851,-27.167035 18.36816,-35.556064"
       id="path942"
       inkscape:connector-curvature="0"
       sodipodi:nodetypes="cccccc"
       inkscape:export-xdpi="203"
       inkscape:export-ydpi="203" />
    <path
       style="opacity:0.97000002;fill:none;fill-opacity:1;stroke:#000000;stroke-width:0;stroke-linecap:round;stroke-linejoin:round;stroke-miterlimit:4;stroke-dasharray:none;stroke-dashoffset:0;stroke-opacity:1;paint-order:stroke markers fill"
       d="m 248.10057,324.49206 c 0,-0.44693 8.70429,-18.79026 19.34287,-40.76296 l 19.34288,-39.95035 34.56627,-0.26286 34.56628,-0.26285 -19.37585,40.76285 -19.37584,40.76286 -34.53331,0.26295 c -18.99331,0.14463 -34.5333,-0.10271 -34.5333,-0.54964 z"
       id="path950"
       inkscape:connector-curvature="0"
       transform="scale(0.26458333)"
       inkscape:export-xdpi="203"
       inkscape:export-ydpi="203" />
    <path
       style="opacity:0.97000002;fill:none;fill-opacity:1;stroke:#000000;stroke-width:0;stroke-linecap:round;stroke-linejoin:round;stroke-miterlimit:4;stroke-dasharray:none;stroke-dashoffset:0;stroke-opacity:1;paint-order:stroke markers fill"
       d="M 428.6833,273.44433 403.78203,223.6099 437.6913,157.95041 c 18.6501,-36.11272 34.13427,-65.659284 34.40927,-65.659028 0.67327,6.27e-4 35,66.644738 35,67.951248 0,0.56591 -8.2069,17.45007 -18.23754,37.52036 l -18.23754,36.49141 6.23754,12.52235 c 3.43064,6.88729 6.23754,13.036 6.23754,13.66379 0,1.51632 -28.27322,62.83821 -28.97233,62.83821 -0.29902,0 -11.74924,-22.42549 -25.44494,-49.83442 z"
       id="path952"
       inkscape:connector-curvature="0"
       transform="scale(0.26458333)"
       inkscape:export-xdpi="203"
       inkscape:export-ydpi="203" />
    <path
       style="opacity:0.97000002;fill:none;fill-opacity:1;stroke:#000000;stroke-width:0;stroke-linecap:round;stroke-linejoin:round;stroke-miterlimit:4;stroke-dasharray:none;stroke-dashoffset:0;stroke-opacity:1;paint-order:stroke markers fill"
       d="m 200.81214,284.31708 20.78843,-40.98909 31.25,-0.0246 c 17.1875,-0.0135 31.25,0.31572 31.25,0.7317 0,0.41598 -8.70609,18.75348 -19.34685,40.75 l -19.34686,39.99368 -32.69157,0.26371 -32.69158,0.26371 z"
       id="path958"
       inkscape:connector-curvature="0"
       transform="scale(0.26458333)"
       inkscape:export-xdpi="203"
       inkscape:export-ydpi="203" />
    <path
       style="fill:none;fill-opacity:1;stroke:none;stroke-width:0.125"
       d="m 237.72396,445.37216 -4.78125,-4.85921 v -7.98105 -7.98106 l 4.65687,-4.65562 4.65687,-4.65563 h 20.15563 20.15563 v -6.6875 -6.6875 h -19.3125 -19.3125 v 1.5625 1.5625 h -5.5625 -5.5625 v -2.03182 -2.03183 l 5.03182,-5.03067 5.03182,-5.03068 h 20.06251 20.06251 l 5.03067,5.03183 5.03067,5.03182 v 24.5733 24.5733 l -5.26547,0.0877 c -2.89601,0.0482 -5.29724,0.056 -5.33606,0.0172 -0.0388,-0.0388 -0.0953,-1.50373 -0.1256,-3.25536 -0.0303,-1.75163 -0.0928,-3.18478 -0.13907,-3.18478 -0.0462,0 -1.45751,1.4625 -3.1362,3.25 l -3.05216,3.25 -16.75397,-0.004 -16.75397,-0.004 z m 44.68857,-12.91382 0.0323,-6.84375 -10.71982,10e-5 c -5.8959,6e-5 -14.55888,0.0374 -19.25107,0.083 l -8.53125,0.0829 v 6.79236 6.79237 l 19.21875,-0.0317 19.21875,-0.0316 z"
       id="path984"
       inkscape:connector-curvature="0"
       transform="scale(0.26458333)"
       inkscape:export-xdpi="203"
       inkscape:export-ydpi="203" />
    <path
       style="fill:none;fill-opacity:1;stroke:none;stroke-width:0.08838835"
       d="m 329.74093,404.72443 c -7.74434,-7.97767 -14.06853,-14.51333 -14.05375,-14.5237 0.0148,-0.0104 3.89035,0.004 8.61239,0.0321 l 8.58552,0.0509 9.69317,10.10139 9.69317,10.1014 -1.21974,1.27371 c -5.7615,6.01641 -7.14759,7.45574 -7.18596,7.46195 -0.0243,0.004 -6.38047,-6.52003 -14.1248,-14.49771 z"
       id="path1008"
       inkscape:connector-curvature="0"
       transform="scale(0.26458333)"
       inkscape:export-xdpi="203"
       inkscape:export-ydpi="203" />
    <path
       style="fill:none;fill-opacity:1;stroke:none;stroke-width:0.08838835"
       d="m 316.43403,449.34921 c 0.8457,-0.87445 27.28066,-28.39468 27.34201,-28.46452 0.0786,-0.0895 8.50999,8.57323 8.46771,8.70006 -0.0174,0.0523 -4.40508,4.62513 -9.75031,10.16181 l -9.7186,10.06668 h -8.3948 -8.39479 z"
       id="path1010"
       inkscape:connector-curvature="0"
       transform="scale(0.26458333)"
       inkscape:export-xdpi="203"
       inkscape:export-ydpi="203" />
    <path
       style="fill:none;fill-opacity:1;stroke:none;stroke-width:0.08838835"
       d="m 348.59451,424.14197 c -2.139,-2.20645 -3.88909,-4.05466 -3.88909,-4.10714 0,-0.0525 1.73021,-1.89427 3.8449,-4.09288 l 3.84489,-3.99747 0.0652,3.22335 c 0.0359,1.77285 0.0557,5.41992 0.0442,8.10461 l -0.021,4.88124 z"
       id="path1012"
       inkscape:connector-curvature="0"
       transform="scale(0.26458333)"
       inkscape:export-xdpi="203"
       inkscape:export-ydpi="203" />
    <path
       style="fill:none;fill-opacity:1;stroke:none;stroke-width:0.125"
       d="m 362.50814,410.21925 v -8.76674 l 5.44991,-5.66928 5.4499,-5.66927 4.70635,0.0496 c 2.58849,0.0273 6.35536,0.0835 8.37081,0.125 l 3.66447,0.0754 -13.20625,13.6875 c -7.26343,7.52813 -13.48276,13.96808 -13.82072,14.31101 l -0.61447,0.62352 z"
       id="path1014"
       inkscape:connector-curvature="0"
       transform="scale(0.26458333)"
       inkscape:export-xdpi="203"
       inkscape:export-ydpi="203" />
    <path
       style="fill:none;fill-opacity:1;stroke:none;stroke-width:0.125"
       d="m 368.07921,444.19596 -5.55914,-5.707 -0.006,-8.62415 -0.006,-8.62416 1.11411,1.12416 c 2.96719,2.99396 26.26076,27.37288 26.17346,27.39299 -0.055,0.0127 -3.71296,0.0505 -8.12871,0.0841 l -8.02864,0.0611 z"
       id="path1016"
       inkscape:connector-curvature="0"
       transform="scale(0.26458333)"
       inkscape:export-xdpi="203"
       inkscape:export-ydpi="203" />
    <path
       style="fill:#000000;fill-opacity:1;stroke:none;stroke-width:0.08838835"
       d="m 237.76433,445.41277 -4.78659,-4.85243 v -8.03049 -8.03048 l 4.66279,-4.66218 4.6628,-4.66217 h 20.08594 20.08594 v -6.67332 -6.67332 h -19.26866 -19.26866 v 1.59099 1.59099 h -5.61266 -5.61266 v -2.01112 -2.01112 l 5.06052,-5.05995 5.06052,-5.05994 h 20.06416 20.06416 l 5.05994,5.06052 5.05995,5.06051 v 24.59175 24.59175 l -5.3254,0.0241 c -2.92897,0.0133 -5.33405,0.0221 -5.34461,0.0196 -0.0106,-0.002 -0.0467,-1.37469 -0.0804,-3.0494 -0.0336,-1.6747 -0.0858,-3.13804 -0.11598,-3.25185 -0.0486,-0.18335 -0.4066,0.16683 -3.14037,3.07149 l -3.08555,3.27844 H 259.2702 242.55089 Z m 44.6225,-12.97243 v -6.8647 l -10.27515,0.0587 c -5.65133,0.0323 -14.30234,0.0588 -19.22447,0.0588 l -8.94932,5e-5 v 6.8059 6.8059 h 19.22447 19.22447 z"
       id="path1033"
       inkscape:connector-curvature="0"
       transform="scale(0.26458333)" />
    <path
       style="fill:#a0a0a0;stroke:none;stroke-width:0.08838835"
       d="m 242.85117,390.79745 c -3.40313,3.40278 -6.80625,6.80555 -10.20938,10.20833 -0.0679,1.32334 -0.01,2.67167 -0.0292,4.00458 0.39256,0.24002 1.0318,0.0285 1.51417,0.1 3.27037,0 6.54074,0 9.8111,0 0.24002,-0.39256 0.0285,-1.0318 0.1,-1.51417 0,-0.55594 0,-1.11188 0,-1.66781 12.77914,0 25.55827,0 38.33741,0 0,4.38224 0,8.76448 0,13.14673 -13.32782,0 -26.65565,0 -39.98347,0 -2.85514,2.75767 -5.63814,5.62351 -8.46558,8.42274 -0.31871,0.40707 -0.87657,0.70001 -1.0484,1.17827 0.002,5.27407 0.003,10.54814 0.005,15.8222 2.85198,2.98333 5.8103,5.89633 8.70316,8.85263 0.4835,0.3563 0.78313,1.16383 1.4855,1.01424 10.94772,0 21.89545,0 32.84318,0 2.07745,-2.04629 3.97702,-4.30573 6.11139,-6.30837 0.23744,-0.19427 0.0789,0.46965 0.15399,0.59765 0.0922,1.84242 0.0587,3.69055 0.21027,5.52997 0.40651,0.224 1.0293,0.0245 1.514,0.092 3.00111,-0.0166 6.00508,0.037 9.00439,-0.0587 0.55555,-0.14124 0.14884,-0.9591 0.27293,-1.38728 0,-15.91761 0,-31.83523 0,-47.75284 -2.76528,-2.86264 -5.63872,-5.65315 -8.44559,-8.48805 -0.62671,-0.59838 -1.20815,-1.26464 -1.8627,-1.82128 -13.31718,0 -26.63436,0 -39.95153,0 z m 39.4357,41.61934 c 0,2.26277 0,4.52553 0,6.7883 -12.74967,0 -25.49935,0 -38.24902,0 0,-4.46362 0,-8.92723 0,-13.39084 12.74966,-0.0651 25.49932,-0.12788 38.24902,-0.18506 0,2.26253 0,4.52507 0,6.7876 z"
       id="path1035"
       inkscape:connector-curvature="0"
       transform="scale(0.26458333)" />
    <path
       style="fill:#000000;fill-opacity:1;stroke:none;stroke-width:0.08838835"
       d="m 262.85749,390.69421 c -6.67482,0.005 -13.34963,0.009 -20.02445,0.0142 -2.83138,2.75082 -5.59005,5.60991 -8.39347,8.40236 -0.61499,0.64703 -1.2975,1.2492 -1.87114,1.92371 0.0264,1.3634 -0.0525,2.75136 0.0392,4.09953 3.62704,0.043 7.26947,0.0797 10.90164,0.0178 0.27343,0.024 0.6596,-0.0326 0.57791,-0.40318 0.0582,-0.90934 0.0311,-1.82131 0.0389,-2.73184 12.72027,0 25.44054,0 38.16081,0 0,4.32331 0,8.64663 0,12.96995 -13.28956,0 -26.57911,0 -39.86867,0 -2.69611,2.5842 -5.33639,5.25977 -7.98723,7.90316 -0.48453,0.56981 -1.15125,1.02122 -1.53299,1.6635 -0.18715,2.00044 -0.066,4.0218 -0.10802,6.03008 0.0152,3.30176 -0.0332,6.6154 0.0241,9.90969 2.77616,2.98124 5.69606,5.82676 8.56398,8.7198 0.39284,0.3603 0.85549,0.90763 1.22451,1.15569 7.98618,0.12763 15.97536,0.0614 23.96274,0.0818 3.12952,-0.0181 6.27312,0.0373 9.39385,-0.0266 2.08503,-2.03271 3.97275,-4.26425 6.0698,-6.28334 0.17858,0.0364 0.0366,0.61513 0.0946,0.81569 0.0827,1.73162 -0.002,3.48254 0.22494,5.20162 0.20414,0.3301 0.7366,0.0963 1.05803,0.18491 3.20067,0.0158 6.4078,0.0419 9.60364,-0.13985 0.31339,-0.14937 0.11134,-0.65311 0.19422,-0.92825 0.11199,-9.82641 0.0431,-19.65419 0.0655,-29.48114 6.2e-4,-6.23236 0.001,-12.46472 0.002,-18.69707 -2.79872,-2.90245 -5.70481,-5.73332 -8.54481,-8.60825 -0.62106,-0.59378 -1.19613,-1.25626 -1.84513,-1.80829 -6.67476,0.005 -13.34952,0.01 -20.02428,0.0143 z m 19.34099,41.72414 c 0,2.23278 0,4.46556 0,6.69835 -12.69075,0 -25.38149,0 -38.07224,0 0,-4.40469 0,-8.80937 0,-13.21406 12.69071,-0.0683 25.38145,-0.13116 38.07224,-0.1823 0,2.23267 0,4.46534 0,6.69801 z"
       id="path1037"
       inkscape:connector-curvature="0"
       transform="scale(0.26458333)" />
    <path
       style="fill:#000000;fill-opacity:1;stroke:none;stroke-width:0.0625"
       d="m 316.35604,390.08185 c -0.25111,0.036 -0.53933,-0.0625 -0.77026,0.0507 0.0281,0.30896 0.42907,0.48496 0.59565,0.74204 9.16608,9.49352 18.35409,18.96642 27.57329,28.40835 0.2479,0.12016 0.38916,-0.28858 0.58032,-0.40113 2.67838,-2.7634 5.36177,-5.52366 7.98853,-8.33581 -0.0143,-0.28622 -0.38112,-0.44976 -0.53361,-0.68509 -6.26259,-6.57955 -12.56505,-13.12086 -18.84994,-19.67916 -1.30283,-0.0779 -2.63321,-0.0234 -3.9466,-0.0506 -4.21244,-0.0201 -8.42488,-0.0485 -12.63738,-0.0493 z"
       id="path1039"
       inkscape:connector-curvature="0"
       transform="scale(0.26458333)" />
    <path
       style="opacity:1;vector-effect:none;fill:#000000;fill-opacity:1;stroke:none;stroke-width:0.00390625;stroke-linecap:butt;stroke-linejoin:miter;stroke-miterlimit:4;stroke-dasharray:none;stroke-dashoffset:0;stroke-opacity:1"
       d="m 343.77865,420.74469 c -9.20117,9.57652 -18.42783,19.12898 -27.60648,28.7267 -0.49943,0.33298 -0.0646,0.52074 0.33804,0.42186 5.43165,0 10.86329,0 16.29493,0 0.95669,-0.88773 1.83654,-1.88729 2.7638,-2.81786 5.61452,-5.81977 11.24221,-11.62696 16.84447,-17.45838 -0.007,-0.33226 -0.47307,-0.53129 -0.65409,-0.81101 -2.61233,-2.68722 -5.22466,-5.37445 -7.837,-8.06167 -0.0562,-0.0162 -0.0901,-0.0563 -0.14367,3.6e-4 z"
       id="path1041"
       inkscape:connector-curvature="0"
       transform="scale(0.26458333)" />
    <path
       style="opacity:1;vector-effect:none;fill:#000000;fill-opacity:1;stroke:none;stroke-width:0.0078125;stroke-linecap:butt;stroke-linejoin:miter;stroke-miterlimit:4;stroke-dasharray:none;stroke-dashoffset:0;stroke-opacity:1"
       d="m 373.3865,390.00617 c -3.63145,3.79642 -7.32657,7.55148 -10.91846,11.37353 -0.004,5.83261 -0.008,11.66521 -0.0125,17.49781 0.48295,0.081 0.94778,-0.85604 1.41015,-1.17896 8.79259,-9.06929 17.55822,-18.16456 26.33497,-27.24927 -0.36622,-0.40786 -1.44091,-0.0867 -2.06897,-0.21912 -4.91214,-0.1046 -9.84229,-0.22747 -14.74524,-0.22399 z"
       id="path1043"
       inkscape:connector-curvature="0"
       transform="scale(0.26458333)" />
    <path
       style="opacity:1;vector-effect:none;fill:#000000;fill-opacity:1;stroke:none;stroke-width:0.0078125;stroke-linecap:butt;stroke-linejoin:miter;stroke-miterlimit:4;stroke-dasharray:none;stroke-dashoffset:0;stroke-opacity:1"
       d="m 372.91408,389.06037 c -6.62462,6.85657 -13.17991,13.78135 -19.88134,20.56299 -6.6344,-6.69934 -13.07955,-13.60817 -19.667,-20.34351 -6.39765,-0.19802 -12.79931,-0.16241 -19.19921,-0.18774 -0.37515,0.83737 0.59094,1.49768 1.05176,2.09919 9.17624,9.71608 18.63857,19.15928 27.80663,28.88201 -9.7777,10.25936 -19.60244,20.4763 -29.44409,30.67431 0.36692,0.40237 1.44258,0.0523 2.07178,0.16968 5.85671,-0.0205 11.73002,0.0408 17.57642,-0.0305 6.62276,-6.85113 13.23367,-13.71959 19.87036,-20.55249 6.7221,6.85901 13.36558,13.81754 20.10058,20.64966 6.28489,-0.045 12.57812,-0.01 18.85791,-0.11963 0.0949,-0.42768 -0.55447,-0.74151 -0.74646,-1.0976 -9.30533,-9.98567 -18.91322,-19.68612 -28.24353,-29.64873 9.73315,-10.31328 19.65361,-20.44828 29.48413,-30.66871 -0.36657,-0.40646 -1.44152,-0.076 -2.07002,-0.20372 -5.85341,-0.0864 -11.72412,-0.20641 -17.56792,-0.18519 z m 17.15577,1.41723 c -0.14493,-0.26038 -0.80974,-0.12753 -0.12088,-0.17859 0.26508,0.0323 0.44254,-0.1167 0.12088,0.17859 z m -28.6438,15.96778 c 0.0294,4.0022 0.008,8.00453 -0.031,12.00659 -2.52681,-2.67236 -5.14028,-5.26802 -7.59863,-8.00171 2.5328,-2.63345 5.06567,-5.26684 7.59863,-7.90015 0.0103,1.29843 0.0207,2.59685 0.031,3.89527 z m -4.00537,9.38232 c 1.30466,1.41959 2.79135,2.81989 3.96093,4.2749 -2.44834,2.74323 -5.09032,5.37837 -7.61328,8.0066 -0.22618,-5.11239 -0.19529,-10.24648 -0.2207,-15.36036 -0.14072,-1.11925 0.24979,-0.85659 0.81345,-0.12031 1.01986,1.06639 2.03973,2.13278 3.0596,3.19917 z m -4.91431,4.16724 c 0.0245,2.72891 0.0611,5.45795 0.0483,8.18701 -2.70421,-2.66639 -5.31845,-5.43726 -7.97217,-8.15918 2.61322,-2.70958 5.22591,-5.41967 7.83618,-8.13208 0.0292,2.70142 0.0584,5.40283 0.0876,8.10425 z m 10.03076,-1.56738 c -0.0743,0.2702 0.31341,0.44647 -0.006,0.58129 0.006,-0.065 -0.0104,-0.85961 0.006,-0.58129 z m 0.11914,2.83667 c 9.11557,9.507 18.23089,19.01424 27.34595,28.52172 -5.47035,0.10411 -10.94876,0.079 -16.42236,0.11841 -3.68308,-3.79259 -7.36611,-7.58523 -11.04908,-11.37793 0,-5.7976 0,-11.59521 0,-17.39282 l 0.0866,0.0901 z m -1.23022,4.26489 c 0.0295,3.94141 0.007,7.88295 -0.031,11.82422 -2.49247,-2.59642 -5.05607,-5.12756 -7.46826,-7.79932 2.40815,-2.67981 4.97649,-5.22883 7.46826,-7.83691 0.0103,1.27067 0.0207,2.54134 0.031,3.81201 z"
       id="path1045"
       inkscape:connector-curvature="0"
       transform="scale(0.26458333)" />
    <path
       style="opacity:1;vector-effect:none;fill:#000000;fill-opacity:1;stroke:none;stroke-width:0.0078125;stroke-linecap:butt;stroke-linejoin:miter;stroke-miterlimit:4;stroke-dasharray:none;stroke-dashoffset:0;stroke-opacity:1"
       d="m 372.92092,388.97223 c -6.60977,6.89977 -13.21402,13.80397 -19.91699,20.61304 -6.57942,-6.78074 -13.12546,-13.61676 -19.65991,-20.42554 -6.39291,-0.0322 -12.78581,-0.0645 -19.17872,-0.0969 -0.25455,0.52159 0.006,1.17684 0.44922,1.55371 6.18452,6.59753 12.56496,13.01015 18.82835,19.53334 3.17644,3.30085 6.38564,6.56945 9.51247,9.9171 -9.34169,9.86465 -18.83484,19.58362 -28.17846,29.44605 -0.28322,0.4385 -0.93044,0.79608 -0.9502,1.34863 0.6405,0.2919 1.42632,-0.014 2.12009,0.0836 5.78738,-0.0646 11.59148,0.0139 17.36844,-0.0665 6.57864,-6.80303 13.12043,-13.66263 19.74682,-20.40552 6.81604,6.7589 13.38566,13.78461 20.16309,20.56909 6.35479,0.0209 12.70906,-0.0736 19.06299,-0.16553 0.0303,-0.54645 -0.9596,-1.07844 -1.31085,-1.61523 -9.21378,-9.68451 -18.54395,-19.25895 -27.69892,-28.99892 -0.2256,-0.30783 0.40823,-0.62565 0.54675,-0.90223 9.4986,-9.99856 19.15469,-19.84677 28.65662,-29.84177 -0.0409,-0.39841 -0.76095,-0.14174 -1.0498,-0.24951 -6.16656,-0.15394 -12.35328,-0.26567 -18.51099,-0.29688 z m 17.1687,1.32202 c 0.31287,0.0817 -0.30319,0.009 0,0 z m -28.82471,12.64234 c 0.0991,5.08904 0.0754,10.18885 0.0288,15.28174 -2.43015,-2.52581 -4.9441,-4.98089 -7.25976,-7.61133 -0.20556,-0.3701 0.4988,-0.66009 0.65951,-0.99055 2.16365,-2.30173 4.33454,-4.59754 6.56412,-6.83489 l 0.006,0.12486 z m -8.90234,9.99878 c 0.13732,5.01292 0.0313,10.03532 0.0315,15.052 -2.55453,-2.64489 -5.17749,-5.22644 -7.65429,-7.94482 2.44137,-2.72271 5.02905,-5.31054 7.54809,-7.96094 0.0249,0.28459 0.0498,0.56917 0.0747,0.85376 z m 1.38232,-0.73975 c 2.59711,2.55214 5.15239,5.15374 7.57789,7.87036 -2.39407,2.70289 -4.96479,5.29708 -7.47217,7.86573 -0.28136,-4.91669 -0.24117,-9.85777 -0.19198,-14.78065 0.0386,-0.26948 -0.0393,-0.85269 0.0863,-0.95544 z m 8.80445,6.69458 c 0.067,0.17091 -0.033,-0.0341 0,0 z m 0.73974,3.12281 c 8.86926,9.19607 17.69394,18.43422 26.5398,27.65332 -5.42479,0.24246 -10.8626,0.11348 -16.29346,0.16064 -3.66739,-3.78753 -7.33479,-7.57504 -11.0022,-11.36255 -7.9e-4,-5.73828 -0.002,-11.47656 -0.002,-17.21484 0.25277,0.25447 0.50554,0.50895 0.7583,0.76343 z m -1.98803,3.59448 c 0.0296,3.85376 0.007,7.70766 -0.031,11.56128 -2.40165,-2.54251 -4.96612,-4.94904 -7.19482,-7.64258 2.26103,-2.62491 4.80563,-5.09086 7.19482,-7.63355 0.0103,1.23829 0.0207,2.47657 0.031,3.71485 z"
       id="path1047"
       inkscape:connector-curvature="0"
       transform="scale(0.26458333)" />
    <path
       style="opacity:1;vector-effect:none;fill:#000000;fill-opacity:1;stroke:none;stroke-width:0.0078125;stroke-linecap:butt;stroke-linejoin:miter;stroke-miterlimit:4;stroke-dasharray:none;stroke-dashoffset:0;stroke-opacity:1"
       d="m 362.5093,421.40046 c -0.10026,5.65593 -0.0294,11.32019 -0.0496,16.97924 3.64782,3.87437 7.39899,7.68161 11.08642,11.53028 5.22978,-0.006 10.48901,-0.0469 15.72657,-0.2168 0.46121,-0.1289 -0.14837,-0.64432 -0.2744,-0.83471 -5.17379,-5.61497 -10.54308,-11.04777 -15.80568,-16.5796 -3.50596,-3.63852 -6.99381,-7.29493 -10.52417,-10.90966 l -0.0876,-0.0251 z"
       id="path1049"
       inkscape:connector-curvature="0"
       transform="scale(0.26458333)" />
    <path
       style="opacity:1;vector-effect:none;fill:#000000;fill-opacity:1;stroke:none;stroke-width:0.0078125;stroke-linecap:butt;stroke-linejoin:miter;stroke-miterlimit:4;stroke-dasharray:none;stroke-dashoffset:0;stroke-opacity:1"
       d="m 372.79592,388.98957 c -6.55392,6.84798 -13.07138,13.74051 -19.75903,20.4541 -5.29708,-5.23443 -10.38502,-10.69867 -15.57394,-16.04794 -1.39839,-1.42567 -2.74872,-2.92092 -4.1768,-4.30362 -6.28227,0.0112 -12.56861,0.006 -18.84668,-0.10816 -0.62507,0.0464 -0.48474,0.94373 -0.12548,1.24512 2.8826,3.38011 6.1032,6.45755 9.15438,9.68418 6.34306,6.57943 12.75076,13.09872 19.02921,19.73916 0.46336,0.29177 0.2344,0.61617 -0.0872,0.89209 -6.24215,6.6611 -12.6364,13.19484 -18.93742,19.80642 -3.16075,3.35576 -6.4491,6.59542 -9.52254,10.03098 -0.26564,0.19319 -0.28149,0.67622 0.16333,0.55249 6.39793,0.0576 12.81236,0.019 19.20044,-0.0664 6.63121,-6.72698 13.15021,-13.56332 19.72412,-20.3462 6.80703,6.76452 13.36658,13.79818 20.20313,20.52051 6.36716,-0.037 12.73722,0.0397 19.10156,-0.18774 0.0782,-0.4639 -0.80258,-0.90462 -1.09048,-1.36064 -9.10135,-9.57297 -18.32386,-19.03186 -27.35361,-28.67257 -0.23272,-0.33158 -0.91805,-0.71679 -0.32398,-1.06518 7.36319,-7.87849 14.92437,-15.57139 22.38156,-23.3625 2.17991,-2.30948 4.45624,-4.53974 6.56595,-6.90874 -0.13931,-0.38449 -0.83292,-0.13442 -1.16549,-0.24815 -6.15993,-0.21466 -12.32516,-0.20108 -18.48783,-0.27822 z m -11.57544,15.60254 c 0.0849,4.31785 0.193,8.65925 -0.0295,12.96801 0.0757,0.71692 -0.32107,0.18994 -0.59229,-0.0842 -2.18937,-2.33116 -4.48849,-4.5745 -6.56152,-7.00562 1.76792,-2.14242 3.83604,-4.0375 5.71409,-6.0913 0.4198,-0.27137 1.26259,-1.66248 1.41169,-1.21725 0.0192,0.47679 0.0384,0.95358 0.0576,1.43038 z m -8.97119,7.84985 c 0.11769,5.12343 0.02,10.25342 0.0198,15.37939 -2.49949,-2.58015 -5.0096,-5.14824 -7.48046,-7.75585 2.37037,-2.57558 4.74968,-5.15273 7.2771,-7.57544 0.0377,0.0106 0.2303,-0.26018 0.18359,-0.0481 z m 1.51807,-0.0491 c 1.71957,1.4005 3.15706,3.12923 4.73046,4.69189 0.90715,0.98444 1.8871,1.93327 2.69483,2.98584 -2.25307,2.71871 -4.8318,5.15468 -7.27564,7.70288 -0.28224,-3.64585 -0.16761,-7.31469 -0.21997,-10.97094 0.0177,-1.4663 -0.027,-2.96173 0.0703,-4.40967 z m 7.45263,14.27344 c 0.0317,3.44119 0.0243,6.88304 -0.0718,10.32324 -2.32233,-2.47975 -4.81182,-4.81787 -6.96704,-7.44458 0.68985,-1.00523 1.6955,-1.89605 2.5267,-2.83246 1.47672,-1.55882 2.97426,-3.09771 4.46647,-4.64166 0.0152,1.53182 0.0304,3.06364 0.0457,4.59546 z m 28.14673,22.61035 c 0.31966,0.1761 0.31955,0.42741 0.0366,0.28051 -0.038,-0.28458 -0.28565,-0.48938 -0.44287,-0.71435 0.13542,0.14461 0.27083,0.28922 0.40625,0.43384 z"
       id="path1051"
       inkscape:connector-curvature="0"
       transform="scale(0.26458333)" />
    <path
       style="opacity:1;vector-effect:none;fill:#000000;fill-opacity:1;stroke:none;stroke-width:0.0078125;stroke-linecap:butt;stroke-linejoin:miter;stroke-miterlimit:4;stroke-dasharray:none;stroke-dashoffset:0;stroke-opacity:1"
       d="m 372.75613,388.99811 c -6.54802,6.80567 -13.03922,13.67093 -19.70459,20.35889 -6.67717,-6.62041 -13.08758,-13.52199 -19.66089,-20.23071 -6.41192,-0.03 -12.82735,-0.20087 -19.23755,-0.0908 -0.46364,0.45764 0.0315,1.2296 0.4101,1.59234 5.61022,6.0616 11.44365,11.91327 17.15844,17.87621 3.58467,3.76399 7.29199,7.41692 10.7547,11.2939 0.41903,0.40781 -0.37841,0.78038 -0.55043,1.13208 -7.08913,7.66725 -14.42823,15.09985 -21.62218,22.66922 -2.15708,2.31802 -4.45086,4.51783 -6.51391,6.91867 -0.31721,0.34303 0.16336,0.55399 0.46948,0.45801 6.32736,0.10784 12.65643,-0.008 18.98437,-0.0169 6.68073,-6.688 13.1673,-13.60077 19.80249,-20.3457 6.7024,6.76098 13.3567,13.56801 20.00049,20.38745 5.81808,0.0495 11.66387,0.082 17.49097,-0.0454 0.56366,-0.10092 1.30467,0.0923 1.76977,-0.27613 -0.37604,-0.70678 -1.13583,-1.23166 -1.64907,-1.86763 -8.74811,-9.21241 -17.62839,-18.30003 -26.30161,-27.58305 -0.27215,-0.38869 -0.8101,-0.74639 -0.89551,-1.19604 3.73332,-4.20654 7.73314,-8.18167 11.60336,-12.26644 5.67367,-5.93545 11.43305,-11.79039 17.05533,-17.77409 0.15877,-0.16096 0.66298,-0.70428 0.15894,-0.74365 -6.47903,-0.26553 -12.96646,-0.28171 -19.45044,-0.28125 z m -11.73926,14.21558 c 0.32725,1.45921 0.11107,3.0025 0.19812,4.49633 -0.0118,3.35619 0.0855,6.74217 -0.0785,10.08008 -0.29601,0.031 -0.55443,-0.50939 -0.82252,-0.67457 -2.10013,-2.16714 -4.21888,-4.32528 -6.15087,-6.64354 1.59339,-2.05377 3.53098,-3.82242 5.30346,-5.72119 0.51301,-0.51352 1.01615,-1.05197 1.5503,-1.53711 z m -5.79663,10.61255 c 2.0057,2.01727 4.06707,4.0298 5.85376,6.24048 -1.54072,2.03316 -3.45319,3.76533 -5.1874,5.6339 -0.63162,0.63552 -1.27656,1.33229 -1.91319,1.91614 -0.32956,-4.776 -0.11925,-9.57565 -0.13678,-14.36146 -0.25673,-1.37976 0.59028,-0.12696 1.08203,0.2785 0.10053,0.0975 0.20105,0.19496 0.30158,0.29244 z m -3.0669,-1.3169 c 0.069,5.03017 -0.002,10.07002 -0.009,15.10376 -2.35529,-2.49385 -4.85571,-4.85923 -7.10473,-7.44897 -0.24773,-0.38874 0.46423,-0.64629 0.60225,-0.96339 2.14503,-2.24427 4.2166,-4.63019 6.51176,-6.6914 z m 8.94971,10.08203 c 0.11832,4.55307 0.12654,9.12564 -0.0233,13.67719 0.0886,1.18328 -0.83343,-0.46757 -1.25508,-0.71521 -1.83308,-1.98893 -3.8514,-3.84354 -5.50876,-5.97321 -0.008,-0.40956 0.56232,-0.7068 0.76729,-1.0538 1.95257,-2.12674 3.97329,-4.18943 5.96684,-6.2775 0.0177,0.11418 0.0353,0.22836 0.053,0.34253 z"
       id="path1053"
       inkscape:connector-curvature="0"
       transform="scale(0.26458333)" />
    <path
       style="opacity:1;vector-effect:none;fill:#000000;fill-opacity:1;stroke:none;stroke-width:0.00390625;stroke-linecap:butt;stroke-linejoin:miter;stroke-miterlimit:4;stroke-dasharray:none;stroke-dashoffset:0;stroke-opacity:1"
       d="m 352.06303,412.56845 c -0.76294,0.56927 -1.38619,1.31909 -2.07544,1.97681 -1.69035,1.75078 -3.41805,3.4726 -4.99621,5.32629 -0.18675,0.26818 0.22305,0.49715 0.33731,0.70724 2.13064,2.41123 4.4625,4.63329 6.65963,6.98112 0.35652,0.003 0.10572,-0.67166 0.19548,-0.94003 0.0883,-4.56459 0.0841,-9.1314 0.0244,-13.69632 -0.0293,-0.11801 0.0552,-0.35865 -0.14514,-0.35511 z"
       id="path1055"
       inkscape:connector-curvature="0"
       transform="scale(0.26458333)" />
    <path
       style="opacity:1;vector-effect:none;fill:#000000;fill-opacity:1;stroke:none;stroke-width:0.00390625;stroke-linecap:butt;stroke-linejoin:miter;stroke-miterlimit:4;stroke-dasharray:none;stroke-dashoffset:0;stroke-opacity:1"
       d="m 372.73954,388.91074 c -6.36982,6.63472 -12.70412,13.30908 -19.18017,19.83743 -0.17256,0.14111 -0.34154,0.38753 -0.52319,0.4653 -2.91415,-2.81592 -5.70357,-5.76343 -8.53301,-8.6663 -3.70555,-3.8186 -7.34767,-7.70068 -11.10567,-11.46797 -0.65074,-0.10291 -1.34385,-0.0275 -2.00963,-0.062 -5.74335,-0.0488 -11.4869,-0.0654 -17.23036,-0.0958 -0.44735,0.4272 -0.21774,1.19096 0.20698,1.56551 3.30965,3.64113 6.76865,7.14321 10.17838,10.69009 5.24005,5.42236 10.50139,10.82505 15.70645,16.2811 0.73712,0.8232 1.54735,1.5911 2.2058,2.47966 0.13126,0.31208 -0.29008,0.5307 -0.42346,0.76501 -5.95286,6.47629 -12.12159,12.75425 -18.20011,19.11414 -3.03839,3.1945 -6.12845,6.34066 -9.12281,9.57657 -0.3664,0.45197 -0.84482,0.84528 -1.12191,1.35495 0.038,0.33423 0.50619,0.23744 0.73829,0.28442 4.06593,0.0854 8.13395,0.0306 12.20068,0.032 2.25525,-0.006 4.51032,-0.0334 6.76526,-0.0702 1.04577,-0.97112 2.01951,-2.04769 3.03719,-3.05963 5.58404,-5.72324 11.11942,-11.49327 16.69865,-17.22076 6.62433,6.61501 13.11801,13.35757 19.69991,20.01424 0.19684,0.21841 0.409,0.46004 0.73658,0.38657 5.69055,0.0514 11.38195,-0.0249 17.07181,-0.117 0.61017,-0.0285 1.22917,8.3e-4 1.83386,-0.0801 0.1999,-0.24348 -0.18669,-0.5103 -0.30359,-0.70911 -2.46668,-2.63224 -4.97863,-5.22324 -7.4673,-7.83528 -6.53867,-6.84766 -13.14177,-13.63299 -19.59339,-20.56303 -0.47532,-0.5612 -1.04416,-1.06236 -1.43263,-1.68848 0.028,-0.32504 0.48403,-0.57666 0.67796,-0.87324 4.24902,-4.66047 8.69497,-9.13825 13.04453,-13.70513 4.9769,-5.1889 10.00796,-10.32651 14.92293,-15.57434 0.12091,-0.19812 0.47614,-0.41447 0.34998,-0.66845 -0.59774,-0.24342 -1.28119,-0.12392 -1.91333,-0.18995 -5.94593,-0.16035 -11.89432,-0.23587 -17.84241,-0.23095 l -0.0575,0.0245 z m -11.74707,14.50574 c 0.18355,1.61172 0.0993,3.26732 0.13657,4.89855 -0.002,2.99408 0.0418,5.99007 -0.0383,8.98296 -0.0292,0.1181 0.007,0.50964 -0.16434,0.27925 -2.2293,-2.19914 -4.42707,-4.44625 -6.44523,-6.84581 -0.0991,-0.13272 -0.30729,-0.27692 -0.10547,-0.41676 1.55542,-1.90647 3.32114,-3.62943 5.03072,-5.39556 0.51823,-0.51505 1.02917,-1.04396 1.57955,-1.52802 z m -7.08459,9.28613 c 1.20418,1.01426 2.25945,2.19511 3.37756,3.30408 1.24131,1.31532 2.5536,2.57823 3.65137,4.0205 -0.0109,0.23078 -0.29429,0.42185 -0.41647,0.62299 -1.98718,2.30388 -4.15015,4.4583 -6.27973,6.62135 -0.13804,0.16526 -0.26796,0.23527 -0.23398,-0.05 -0.18459,-4.21608 -0.10517,-8.44495 -0.12609,-12.66638 0.0179,-0.60743 -0.036,-1.29107 0.0273,-1.85254 z m 7.1051,9.76184 c 0.10111,1.58977 0.0392,3.18986 0.0633,4.78345 -0.012,2.96802 0.0226,5.93811 -0.0665,8.90471 -0.0282,0.12612 -0.009,0.37916 -0.0944,0.42537 -1.46361,-1.47732 -2.88458,-3.00316 -4.32691,-4.50257 -0.73223,-0.82164 -1.53526,-1.59914 -2.16907,-2.50073 -0.0644,-0.27276 0.30021,-0.43263 0.41128,-0.64762 1.98649,-2.23619 4.09479,-4.36022 6.17222,-6.51107 z m -8.91699,5.03857 c -0.004,-10e-4 -0.003,-10e-4 0,0 z"
       id="path1057"
       inkscape:connector-curvature="0"
       transform="scale(0.26458333)" />
    <path
       style="opacity:1;vector-effect:none;fill:none;fill-opacity:1;stroke:none;stroke-width:0.04419417;stroke-linecap:butt;stroke-linejoin:miter;stroke-miterlimit:4;stroke-dasharray:none;stroke-dashoffset:0;stroke-opacity:1"
       d="m 357.48413,89.971841 c -11.58749,23.997099 -23.8665,47.909289 -34.92997,72.013029 24.16788,0.66681 48.40863,0.13051 72.56546,0.0387 12.32166,-23.59962 25.28489,-46.89831 36.97532,-70.807356 -24.71716,-1.123012 -49.81227,-0.903853 -74.61081,-1.244343 z"
       id="path1059"
       inkscape:connector-curvature="0"
       transform="scale(0.26458333)" />
    <path
       style="opacity:1;vector-effect:none;fill:none;fill-opacity:1;stroke:none;stroke-width:0.04419417;stroke-linecap:butt;stroke-linejoin:miter;stroke-miterlimit:4;stroke-dasharray:none;stroke-dashoffset:0;stroke-opacity:1"
       d="m 357.92331,90.004987 c -11.7815,23.668583 -23.73874,47.439173 -34.67447,71.410883 23.94709,0.5049 47.95726,0.23827 71.89011,0.20439 12.19226,-23.25767 24.7983,-46.52574 36.36904,-69.966278 -24.4901,-1.373163 -49.09161,-1.250317 -73.58468,-1.648995 z"
       id="path1061"
       inkscape:connector-curvature="0"
       transform="scale(0.26458333)" />
    <path
       style="opacity:1;vector-effect:none;fill:#1762f5;fill-opacity:1;stroke:none;stroke-width:0.00276214;stroke-linecap:butt;stroke-linejoin:miter;stroke-miterlimit:4;stroke-dasharray:none;stroke-dashoffset:0;stroke-opacity:1"
       d="m 359.28568,89.894037 c -0.85125,0.125542 -2.21719,-0.42954 -2.41974,0.804693 -11.82266,23.82866 -23.53452,47.71225 -35.29654,71.57121 0.40974,0.70973 1.87264,0.0812 2.65335,0.30084 23.59145,0.1319 47.18316,0.20836 70.77493,0.25262 1.29841,-1.91151 2.24367,-4.15794 3.40772,-6.19686 11.67066,-22.04381 23.41915,-44.04774 35.00495,-66.135537 -0.21198,-0.669302 -1.38164,-0.117092 -1.93549,-0.316175 -24.06249,-0.174582 -48.12608,-0.266414 -72.18918,-0.280791 z"
       id="path1173"
       inkscape:connector-curvature="0"
       transform="scale(0.26458333)" />
    <path
       style="opacity:1;vector-effect:none;fill:#1762f5;fill-opacity:1;stroke:none;stroke-width:0.00195312;stroke-linecap:butt;stroke-linejoin:miter;stroke-miterlimit:4;stroke-dasharray:none;stroke-dashoffset:0;stroke-opacity:1"
       d="m 271.97062,242.75238 c -16.3034,0.0399 -32.60794,0.003 -48.91043,0.17115 -0.72847,0.0944 -1.54299,-0.0875 -2.21775,0.17944 -13.81244,27.51057 -27.64428,55.01144 -41.43677,82.53198 -0.009,0.55696 0.83666,0.24912 1.18548,0.356 15.36642,0.1561 30.73453,0.0598 46.10163,0.0882 6.22323,-1.9e-4 12.44646,-3.7e-4 18.66968,-5.6e-4 0.70471,-0.85788 1.03482,-2.05118 1.59392,-3.03944 12.85168,-26.62559 25.74222,-53.23419 38.56038,-79.87486 -0.10328,-0.53176 -0.89495,-0.2559 -1.28144,-0.3594 -4.08746,-0.0783 -8.17669,-0.0443 -12.2647,-0.0525 z"
       id="path1175"
       inkscape:connector-curvature="0"
       transform="scale(0.26458333)" />
    <path
       style="opacity:1;vector-effect:none;fill:#1762f5;fill-opacity:1;stroke:none;stroke-width:0.00195312;stroke-linecap:butt;stroke-linejoin:miter;stroke-miterlimit:4;stroke-dasharray:none;stroke-dashoffset:0;stroke-opacity:1"
       d="m 269.96611,242.63727 c -16.0366,0.037 -32.07386,0.0297 -48.10986,0.16382 -0.50634,0.0544 -1.19897,0.01 -1.31697,0.6624 -12.98901,25.77247 -25.9298,51.56965 -38.86538,77.36896 -0.785,1.66212 -1.69412,3.28253 -2.37918,4.98329 0.28778,0.44741 1.02568,0.10818 1.47437,0.24585 13.95462,0.21395 27.91204,0.13727 41.86792,0.18531 7.54923,0.009 15.09847,0.0172 22.6477,0.0259 0.80425,-0.73798 1.05848,-1.94191 1.627,-2.87008 11.22764,-23.13215 22.37984,-46.3014 33.56062,-69.45637 1.66494,-3.56465 3.49579,-7.05979 4.99549,-10.69723 0.17741,-0.67801 -0.79124,-0.5094 -1.18018,-0.55493 -4.77289,-0.0907 -9.54799,-0.049 -14.32153,-0.0569 z"
       id="path1177"
       inkscape:connector-curvature="0"
       transform="scale(0.26458333)" />
    <path
       style="opacity:1;vector-effect:none;fill:#1662f6;fill-opacity:1;stroke:none;stroke-width:0.00195312;stroke-linecap:butt;stroke-linejoin:miter;stroke-miterlimit:4;stroke-dasharray:none;stroke-dashoffset:0;stroke-opacity:1"
       d="m 366.92412,89.758365 c -3.21428,0.0314 -6.43563,-0.04609 -9.64551,0.100586 -0.72455,0.900228 -1.11104,2.079628 -1.69124,3.089948 -10.82903,21.982821 -21.72989,43.930861 -32.46721,65.958631 -0.47385,1.16626 -1.23737,2.26844 -1.46997,3.50855 0.36792,0.45948 1.15433,0.16862 1.67794,0.28779 13.60768,0.14482 27.21706,0.10078 40.82539,0.1738 10.25676,0.0507 20.51456,0.0356 30.7706,0.1451 0.92079,-0.98108 1.42671,-2.34413 2.11858,-3.51415 11.72503,-22.22033 23.61376,-44.35488 35.22736,-66.633537 0.38412,-0.839016 0.92188,-1.633816 1.1836,-2.516864 -0.31604,-0.501649 -1.11827,-0.213357 -1.62085,-0.326416 -21.63586,-0.123454 -43.27234,-0.261911 -64.90869,-0.273438 z"
       id="path1179"
       inkscape:connector-curvature="0"
       transform="scale(0.26458333)" />
    <path
       style="opacity:1;vector-effect:none;fill:#01a1a9;fill-opacity:1;stroke:none;stroke-width:0.00048828;stroke-linecap:butt;stroke-linejoin:miter;stroke-miterlimit:4;stroke-dasharray:none;stroke-dashoffset:0;stroke-opacity:1"
       d="m 517.17601,260.69549 c -10.67662,0.041 -21.39859,-0.0729 -32.04688,0.0649 -9.8868,21.55949 -19.92299,43.07527 -29.6997,64.66992 0.90447,0.62084 2.30585,0.19756 3.36459,0.38161 18.33461,0.0865 36.67293,0.0993 55.00601,-0.1443 1.82397,0.41624 2.46664,-0.99726 3.05417,-2.42735 10.79163,-20.80063 21.60543,-41.5898 32.36673,-62.40615 -2.78208,-0.34026 -5.92001,-0.0472 -8.83887,-0.14399 -7.73535,0.002 -15.4707,0.004 -23.20605,0.005 z"
       id="path1200"
       inkscape:connector-curvature="0"
       transform="scale(0.26458333)" />
    <path
       style="opacity:1;vector-effect:none;fill:#01a1a9;fill-opacity:1;stroke:none;stroke-width:0.00048828;stroke-linecap:butt;stroke-linejoin:miter;stroke-miterlimit:4;stroke-dasharray:none;stroke-dashoffset:0;stroke-opacity:1"
       d="m 485.21995,260.70379 c -8.92469,19.09681 -17.65915,38.36204 -26.47096,57.54201 -1.01632,2.42638 -2.38905,4.85263 -3.20335,7.28514 2.62939,0.52579 5.39948,0.0853 8.07665,0.24879 16.79015,-0.0343 33.58542,0.12686 50.37208,-0.22829 0.79054,0.0175 1.69054,-0.0576 1.8789,-1.00341 11.09406,-20.78237 21.99322,-41.67336 32.69043,-62.6626 0.3113,-0.43574 0.63864,-1.22333 -0.25635,-1.01123 -21.02579,-0.33198 -42.05936,-0.11317 -63.0874,-0.17041 z"
       id="path1202"
       inkscape:connector-curvature="0"
       transform="scale(0.26458333)" />
    <path
       style="opacity:0.97000002;fill:#053cce;fill-opacity:1;stroke:#000000;stroke-width:0;stroke-linecap:round;stroke-linejoin:round;stroke-miterlimit:4;stroke-dasharray:none;stroke-dashoffset:0;stroke-opacity:1;paint-order:stroke markers fill"
       d="m 331.5747,163.33887 c -3.40219,0.0355 -6.81249,-0.0564 -10.20971,0.10425 -0.54789,0.39974 0.23002,1.07678 0.33987,1.57281 11.48635,24.35505 22.89514,48.74685 34.51972,73.03619 0.42373,0.83187 0.787,1.70001 1.26321,2.50257 0.63168,0.3102 0.71569,-0.747 1.00014,-1.10427 12.09322,-25.15951 24.16878,-50.32819 36.16832,-75.53245 -0.0307,-0.73358 -1.03341,-0.31671 -1.52709,-0.43276 -20.51796,-0.0904 -41.0363,-0.13605 -61.55446,-0.14634 z"
       id="path1256"
       inkscape:connector-curvature="0"
       transform="scale(0.26458333)" />
    <path
       style="opacity:0.97000002;fill:#7931da;fill-opacity:1;stroke:#000000;stroke-width:0;stroke-linecap:round;stroke-linejoin:round;stroke-miterlimit:4;stroke-dasharray:none;stroke-dashoffset:0;stroke-opacity:1;paint-order:stroke markers fill"
       d="m 471.91228,90.441366 c -7.36983,13.893384 -14.50891,27.918894 -21.76278,41.877184 -15.67605,30.39465 -31.42504,60.75223 -46.95536,91.22117 -0.14831,0.913 0.77864,1.71456 1.01617,2.57892 16.33118,32.7962 32.83637,65.50669 49.39398,98.189 0.1095,0.76168 0.98867,1.19158 1.15162,0.22154 9.97639,-21.34591 19.77461,-42.7754 29.65573,-64.16605 -0.88343,-2.35519 -2.25427,-4.59121 -3.32475,-6.90066 -3.17766,-6.35482 -6.35533,-12.70964 -9.533,-19.06445 12.1835,-24.5484 24.53951,-49.01217 36.53051,-73.65487 0.43698,-0.88928 -0.64255,-1.70426 -0.85355,-2.5413 -11.54076,-22.58534 -23.10817,-45.15858 -34.83001,-67.650689 -0.11807,-0.19622 -0.30467,-0.212613 -0.48856,-0.109795 z"
       id="path1258"
       inkscape:connector-curvature="0"
       transform="scale(0.26458333)" />
    <path
       style="opacity:0.97000002;fill:#7931da;fill-opacity:1;stroke:#000000;stroke-width:0;stroke-linecap:round;stroke-linejoin:round;stroke-miterlimit:4;stroke-dasharray:none;stroke-dashoffset:0;stroke-opacity:1;paint-order:stroke markers fill"
       d="m 328.37567,242.75416 c -13.87769,0.0245 -27.75532,0.0693 -41.63299,0.10289 -3.68387,6.71967 -6.80053,13.94692 -10.26617,20.86188 -9.95678,20.62046 -19.93116,41.2326 -29.86766,61.86271 1.30506,1.0419 4.08469,0.11581 5.92685,0.42951 21.51013,0 43.02027,0 64.5304,0 3.59091,-6.63486 6.60428,-13.78131 9.97297,-20.61301 9.78495,-20.67779 19.67718,-41.30624 29.32187,-62.04943 -0.53049,-1.05865 -2.37838,-0.17999 -3.36633,-0.50544 -8.20584,-0.0977 -16.41265,-0.0891 -24.61894,-0.0891 z"
       id="path1260"
       inkscape:connector-curvature="0"
       transform="scale(0.26458333)" />
    <path
       style="opacity:0.97000002;fill:#027e84;fill-opacity:1;stroke:#000000;stroke-width:0;stroke-linecap:round;stroke-linejoin:round;stroke-miterlimit:4;stroke-dasharray:none;stroke-dashoffset:0;stroke-opacity:1;paint-order:stroke markers fill"
       d="m 550.15905,261.98703 c -1.53729,1.62131 -2.30273,3.91142 -3.4769,5.81551 -10.07511,19.22011 -20.00466,38.51676 -30.01968,57.76848 0.53649,1.05646 2.6608,0.12482 3.76611,0.43799 20.90544,0 41.81088,0 62.71631,0 0.71001,-0.85073 -0.96044,-2.14984 -1.19288,-3.16869 -10.51776,-20.21782 -20.81657,-40.5507 -31.43065,-60.71754 -0.0746,-0.11658 -0.22937,-0.17521 -0.36231,-0.13575 z"
       id="path1262"
       inkscape:connector-curvature="0"
       transform="scale(0.26458333)" />
    <path
       style="opacity:0.97000002;fill:#000000;fill-opacity:1;stroke:#000000;stroke-width:0;stroke-linecap:round;stroke-linejoin:round;stroke-miterlimit:4;stroke-dasharray:none;stroke-dashoffset:0;stroke-opacity:1;paint-order:stroke markers fill"
       d="m 361.9759,301.07702 c -6.55559,8.6e-4 -13.11117,0.002 -19.66675,0.003 -0.62412,0.34988 -0.991,1.06394 -1.51554,1.55472 -2.03103,2.31837 -4.13491,4.59257 -6.12057,6.93842 -0.1037,1.87868 -0.0146,3.79279 -0.0444,5.68507 0,12.94642 0,25.89284 0,38.83926 0.488,0.77209 1.28893,1.33512 1.90015,2.02488 1.83047,1.79895 3.60972,3.67454 5.47217,5.42562 1.40677,0.12605 2.86008,0.0181 4.28476,0.0541 11.60839,0 23.21679,0 34.82518,0 0.77207,-0.48801 1.33506,-1.28898 2.02481,-1.90023 2.35702,-2.35666 4.71405,-4.71332 7.07108,-7.06998 0.20078,-0.89103 0.0324,-1.85548 0.0879,-2.77543 0,-13.3761 0,-26.7522 0,-40.12831 -0.48801,-0.77207 -1.28898,-1.33507 -1.90022,-2.02481 -2.17989,-2.18025 -4.35978,-4.3605 -6.53966,-6.54074 -0.89104,-0.20073 -1.85549,-0.0322 -2.77543,-0.0875 -5.70117,8e-4 -11.40233,0.002 -17.10349,0.002 z m 18.09268,9.66627 c 0.58649,0.58597 1.17299,1.17195 1.75948,1.75792 0,12.41051 0,24.82102 0,37.23152 -1.22351,1.22248 -2.44702,2.44495 -3.67053,3.66743 -10.90687,0 -21.81374,0 -32.72061,0 -1.16364,-1.1645 -2.32719,-2.32908 -3.49065,-3.49376 0,-12.47657 0,-24.95313 0,-37.4297 1.04519,-1.00777 2.09043,-2.01549 3.13571,-3.02316 11.07656,-0.12918 22.15279,-0.29676 33.22884,-0.46645 0.58592,0.5854 1.17184,1.1708 1.75776,1.7562 z"
       id="path1268"
       inkscape:connector-curvature="0"
       transform="matrix(0.26458333,0,0,0.26458333,38.893749,23.527063)" />
  </g>
</svg>
